# xmcd
#
# Track frame offsets:
#	150
#	12385
#	22715
#	34315
#	45507
#	56300
#	65237
#	75787
#	85110
#	96747
#	107477
#	118517
#	131035
#	144982
#	156632
#
# Disc length: 2227 seconds
#
# Revision: 0
# Processed by: cddbd v1.5.1PL0 Copyright (c) Steve Scherf et al.
# Submitted via: dBpowerAMP V4.0
#
DISCID=bf08b10f
DTITLE=Varios - Las guitarras Mágicas
DYEAR=1900
DGENRE=Acid Jazz
TTITLE0=Mellodia Desencadenada
TTITLE1=Luces en el puerto
TTITLE2=Tango Azul
TTITLE3=Humo en tus ojos
TTITLE4=Noche en el pais de las maravillas
TTITLE5=Todo mundo comenta
TTITLE6=Colina azul
TTITLE7=Rosas rojas para una dama triste
TTITLE8=Historia de amor
TTITLE9=Cancion de Septiembre
TTITLE10=La paloma
TTITLE11=Tema de amor(romeo y julieta)
TTITLE12=Tema de Lara
TTITLE13=Molino Rojo
TTITLE14=No puedo dejar de amarte
EXTD=
EXTT0=
EXTT1=
EXTT2=
EXTT3=
EXTT4=
EXTT5=
EXTT6=
EXTT7=
EXTT8=
EXTT9=
EXTT10=
EXTT11=
EXTT12=
EXTT13=
EXTT14=
PLAYORDER=
